<svg xmlns="http://www.w3.org/2000/svg" width="640" height="320" viewBox="0 0 640 320" font-family="system-ui,Arial,sans-serif">
<rect width="640" height="320" fill="white"/>
<line x1="56" y1="272" x2="624" y2="272" stroke="#eee"/><text x="48" y="276" font-size="11" text-anchor="end" fill="#555">0</text><line x1="56" y1="210" x2="624" y2="210" stroke="#eee"/><text x="48" y="214" font-size="11" text-anchor="end" fill="#555">25</text><line x1="56" y1="148" x2="624" y2="148" stroke="#eee"/><text x="48" y="152" font-size="11" text-anchor="end" fill="#555">50</text><line x1="56" y1="86" x2="624" y2="86" stroke="#eee"/><text x="48" y="90" font-size="11" text-anchor="end" fill="#555">75</text><line x1="56" y1="24" x2="624" y2="24" stroke="#eee"/><text x="48" y="28" font-size="11" text-anchor="end" fill="#555">100</text>
<text x="56.0" y="290" font-size="11" text-anchor="middle" fill="#555">50</text><text x="227.0" y="290" font-size="11" text-anchor="middle" fill="#555">200</text><text x="425.5" y="290" font-size="11" text-anchor="middle" fill="#555">1000</text><text x="624.0" y="290" font-size="11" text-anchor="middle" fill="#555">5000</text>
<text x="320" y="310" font-size="12" text-anchor="middle" fill="#333">memory store size (facts, log scale)</text>
<polyline fill="none" stroke="#7c3aed" stroke-width="2.5" points="56.0,24.0 227.0,24.0 425.5,24.0 624.0,24.0"/><circle cx="56.0" cy="24.0" r="3.5" fill="#7c3aed"/><circle cx="227.0" cy="24.0" r="3.5" fill="#7c3aed"/><circle cx="425.5" cy="24.0" r="3.5" fill="#7c3aed"/><circle cx="624.0" cy="24.0" r="3.5" fill="#7c3aed"/>
<polyline fill="none" stroke="#06b6d4" stroke-width="2.5" points="56.0,73.1 227.0,36.3 425.5,26.5 624.0,24.5"/><circle cx="56.0" cy="73.1" r="3.5" fill="#06b6d4"/><circle cx="227.0" cy="36.3" r="3.5" fill="#06b6d4"/><circle cx="425.5" cy="26.5" r="3.5" fill="#06b6d4"/><circle cx="624.0" cy="24.5" r="3.5" fill="#06b6d4"/>
<rect x="56" y="20" width="12" height="12" fill="#7c3aed"/><text x="74" y="30" font-size="12" fill="#333">retrieval recall@10 (%)</text>
<rect x="246" y="20" width="12" height="12" fill="#06b6d4"/><text x="264" y="30" font-size="12" fill="#333">token savings vs full-load (%)</text>
</svg>
